<!DOCTYPE svg PUBLIC "-//W3C//DTD SVG 1.1//EN" "http://www.w3.org/Graphics/SVG/1.1/DTD/svg11.dtd">

<svg fill="#000000" height="50px" width="50px" version="1.1" xmlns="http://www.w3.org/2000/svg" viewBox="0 0 512 512" xmlns:xlink="http://www.w3.org/1999/xlink" enable-background="new 0 0 512 512"><g id="SVGRepo_bgCarrier" stroke-width="0"></g><g id="SVGRepo_tracerCarrier" stroke-linecap="round" stroke-linejoin="round"></g><g id="SVGRepo_iconCarrier"> <g> <g> <path d="m256,330.8c-60.8,0-108.5,37.2-108.5,84.7 0,11.3 9.1,20.4 20.4,20.4s20.4-9.1 20.4-20.4c0-23.8 31-43.9 67.6-43.9 36.7,0 67.6,20.1 67.6,43.9 0,11.3 9.1,20.4 20.4,20.4 11.3,0 20.4-9.1 20.4-20.4 0.2-47.5-47.5-84.7-108.3-84.7z"></path> <path d="m256,302.4c32.8,0 59.4-26.2 59.4-58.5 0-32.3-26.7-58.5-59.4-58.5-32.8,0-59.4,26.2-59.4,58.5 2.84217e-14,32.3 26.6,58.5 59.4,58.5zm0-76.1c10.3,0 18.6,7.9 18.6,17.7 0,9.7-8.3,17.6-18.6,17.6s-18.6-7.9-18.6-17.6c0-9.8 8.3-17.7 18.6-17.7z"></path> <path d="m417.8,41.7h-141.4v-10.3c0-11.3-9.1-20.4-20.4-20.4-11.3,0-20.4,9.1-20.4,20.4v10.3h-141.4c-28.1,0-51,22.9-51,51v357.3c0,28.1 22.9,51 51,51h323.5c28.1,0 51-22.9 51-51v-357.3c0.1-28.1-22.8-51-50.9-51zm-68.4,40.8l-14.6,28.9h-157.5l-14.6-28.9h186.7zm78.6,367.5c0,5.6-4.6,10.2-10.2,10.2h-323.6c-5.6,0-10.2-4.6-10.2-10.2v-357.3c0-5.6 4.6-10.2 10.2-10.2h22.6l29.6,58.5c3.5,6.9 10.5,11.2 18.2,11.2h182.6c7.7,0 14.7-4.3 18.2-11.2l29.6-58.5h22.6c5.6,0 10.2,4.6 10.2,10.2v357.3z"></path> </g> </g> </g></svg>