<!DOCTYPE svg PUBLIC "-//W3C//DTD SVG 1.1//EN" "http://www.w3.org/Graphics/SVG/1.1/DTD/svg11.dtd">

<svg width="50px" height="50px" viewBox="0 0 21 21" xmlns="http://www.w3.org/2000/svg" fill="#000000"><g id="SVGRepo_bgCarrier" stroke-width="0"></g><g id="SVGRepo_tracerCarrier" stroke-linecap="round" stroke-linejoin="round"></g><g id="SVGRepo_iconCarrier"> <g fill="none" fill-rule="evenodd" stroke="#000000" stroke-linecap="round" stroke-linejoin="round" transform="translate(3 2)"> <path d="m14.5 12.5v-7l-5-5h-5c-1.1045695 0-2 .8954305-2 2v10c0 1.1045695.8954305 2 2 2h8c1.1045695 0 2-.8954305 2-2z"></path> <path d="m9.5.5v3c0 1.1045695.8954305 2 2 2h3m-12-3c-1.1045695 0-2 .8954305-2 2v10c0 1.1045695.8954305 2 2 2h8c1.1045695 0 2-.8954305 2-2"></path> </g> </g></svg>