<!DOCTYPE svg PUBLIC "-//W3C//DTD SVG 1.1//EN" "http://www.w3.org/Graphics/SVG/1.1/DTD/svg11.dtd">
<!-- Uploaded to: SVG Repo, www.svgrepo.com, Transformed by: SVG Repo Mixer Tools -->
<svg width="70px" height="70px" viewBox="0 0 1024 1024" class="icon" version="1.1" xmlns="http://www.w3.org/2000/svg" fill="#000000">
<g id="SVGRepo_bgCarrier" stroke-width="0"/>
<g id="SVGRepo_tracerCarrier" stroke-linecap="round" stroke-linejoin="round"/>
<g id="SVGRepo_iconCarrier">
<path d="M709.404444 769.706667c0 12.151467-1.797689 24.2688-5.358933 35.9424-0.443733 1.479111-0.932978 2.946844-1.422222 4.414577a123.733333 123.733333 0 0 1-116.929422 83.1488H256.170667a123.676444 123.676444 0 0 1-118.351645-87.563377 123.471644 123.471644 0 0 1-4.118755-53.327645l65.080889-455.998578a99.885511 99.885511 0 0 1 98.929777-85.663288h135.975823L699.960889 694.704356v0.022755l8.214755 57.605689c0.796444 5.757156 1.2288 11.582578 1.2288 17.373867z" fill="#DD852C"/>
<path d="M708.175644 752.3328l-2.025244-14.062933a113.095111 113.095111 0 0 1-3.538489 12.333511 123.744711 123.744711 0 0 1-116.929422 83.160178H337.863111c-41.961244 0-76.9024-33.1776-77.778489-75.047823a40.2432 40.2432 0 0 1 0.295822-6.382933l65.080889-455.9872a99.885511 99.885511 0 0 1 98.929778-85.663289H297.710933a99.874133 99.874133 0 0 0-98.929777 85.663289L133.688889 752.3328a123.448889 123.448889 0 0 0 48.810667 116.610844 123.676444 123.676444 0 0 0 73.659733 24.280178h329.5232a123.710578 123.710578 0 0 0 118.351644-87.563378 123.574044 123.574044 0 0 0 4.141511-53.327644z" fill="#C16D21"/>
<path d="M709.404444 769.706667c0 12.151467-1.797689 24.2688-5.358933 35.9424-0.443733 1.479111-34.440533 54.772622-34.440533 54.772622 39.799467-90.7264-90.271289-277.572267-90.271289-277.572267a8.487822 8.487822 0 0 0-11.480178-3.401955 8.487822 8.487822 0 0 1-11.491555-3.424711l-32.631467-60.154312a33.359644 33.359644 0 0 0-24.428089-16.952888c-54.897778-8.385422-105.3696-41.380978-133.859556-93.889423-34.645333-63.840711-27.420444-139.138844 12.3904-194.366577h55.842134L699.960889 694.692978v0.022755l8.226133 57.605689c0.785067 5.768533 1.217422 11.593956 1.217422 17.385245z" fill="#C16D21"/>
<path d="M939.3152 798.651733l-57.218844 94.549334-84.241067-18.102045-164.408889-302.933333-14.893511 8.044089-21.208178-39.105422-23.699911-43.690667a184.718222 184.718222 0 0 1-82.3296-25.315556 181.930667 181.930667 0 0 1-47.763911-40.766577 183.284622 183.284622 0 0 1-19.956622-29.559467c-48.310044-89.019733-15.1552-200.271644 74.023822-248.467911a183.216356 183.216356 0 0 1 118.089955-19.569778 184.615822 184.615822 0 0 1 92.103112 44.293689 182.954667 182.954667 0 0 1 38.786844 49.152c5.677511 10.467556 10.24 21.253689 13.710222 32.210489a183.250489 183.250489 0 0 1-15.439644 145.464889l44.919466 82.796089-14.893511 8.044088 46.364445 85.435734 4.4032 67.959466 54.601955 40.800712 4.425956 67.936711 54.624711 40.823466z" fill="#FFCA6C"/>
<path d="M674.986667 154.612622L491.3152 472.098133a182.146844 182.146844 0 0 1-47.763911-40.766577L615.708444 133.723022c20.753067 3.515733 40.846222 10.581333 59.278223 20.8896zM760.308622 259.390578l-162.963911 281.713778-23.699911-43.690667a184.718222 184.718222 0 0 1-45.556622-8.715378L707.811556 178.028089a182.954667 182.954667 0 0 1 38.786844 49.152c5.677511 10.478933 10.251378 21.253689 13.710222 32.210489z" fill="#FFEEA9"/>
<path d="M505.582933 258.548622a49.163378 49.072356 0 1 0 98.326756 0 49.163378 49.072356 0 1 0-98.326756 0Z" fill="#845521"/>
<path d="M509.622044 877.897956H256.170667a107.633778 107.633778 0 0 1-64.523378-21.276445 107.463111 107.463111 0 0 1-39.150933-55.421155 108.657778 108.657778 0 0 1-3.606756-46.705778l7.805156-54.692978a15.36 15.36 0 0 0-30.378667-4.312178l-7.805156 54.704356a139.855644 139.855644 0 0 0 4.630756 59.938133 137.853156 137.853156 0 0 0 50.232889 71.111111 138.24 138.24 0 0 0 82.796089 27.283911h253.451377a15.325867 15.325867 0 1 0 0-30.628977z" fill=""/>
<path d="M948.497067 786.386489L899.538489 749.795556l-3.948089-60.916623a15.291733 15.291733 0 0 0-6.109867-11.264l-48.969955-36.579555-3.948089-60.916622a15.587556 15.587556 0 0 0-1.809067-6.314667l-39.071289-71.953067 1.399467-0.762311c7.452444-4.027733 10.217244-13.312 6.189511-20.753067l-40.994133-75.537066a199.748267 199.748267 0 0 0 21.754311-85.549511 15.303111 15.303111 0 0 0-14.927645-15.689956 15.268978 15.268978 0 0 0-15.735466 14.916267 169.403733 169.403733 0 0 1-21.868089 78.825244 15.268978 15.268978 0 0 0-0.136533 14.825245l37.626311 69.3248-71.816534 38.832355-28.489955-52.508444a15.36 15.36 0 0 0-20.798578-6.166756 15.303111 15.303111 0 0 0-6.178133 20.753067l28.489955 52.508444-44.032 23.802311h-0.022755l-0.011378 0.011378-1.376711 0.762311-37.637689-69.3248a15.348622 15.348622 0 0 0-12.526933-7.9872c-58.333867-3.697778-109.750044-36.465778-137.511823-87.6544a166.616178 166.616178 0 0 1-13.334755-127.886222 166.798222 166.798222 0 0 1 74.365155-95.937422 466.158933 466.158933 0 0 1 15.121067 38.593422 63.977244 63.977244 0 0 0-20.332089 30.958933 63.852089 63.852089 0 0 0 5.108622 49.015467 64.580267 64.580267 0 0 0 87.460978 25.952711 64.398222 64.398222 0 0 0 25.998222-87.278933c-13.983289-25.793422-43.201422-38.1952-70.564977-32.210489a534.698667 534.698667 0 0 0-15.337245-38.331733 167.276089 167.276089 0 0 1 107.485867-3.8912 167.196444 167.196444 0 0 1 100.0448 81.021155 168.618667 168.618667 0 0 1 12.561066 29.536711 15.36 15.36 0 0 0 19.2512 9.989689 15.303111 15.303111 0 0 0 10.001067-19.205689 199.975822 199.975822 0 0 0-14.848-34.895644 197.677511 197.677511 0 0 0-118.272-95.789511 197.916444 197.916444 0 0 0-129.683911 5.563733 337.578667 337.578667 0 0 0-6.235022-11.320889c-25.315556-44.145778-66.901333-93.764267-121.366756-79.405511-27.932444 7.361422-39.3216 24.325689-43.952355 37.250845-13.312 37.193956 11.4688 88.826311 29.513955 119.182222h-72.385422c-56.991289 0-106.052267 42.473244-114.119111 98.816L132.790044 650.1376a15.291733 15.291733 0 0 0 15.212089 17.464889c7.509333 0 14.074311-5.506844 15.166578-13.141333l50.7904-355.9424c5.916444-41.346844 41.927111-72.521956 83.751822-72.521956h109.238045a201.557333 201.557333 0 0 0-12.606578 31.880533 196.960711 196.960711 0 0 0 15.7696 151.199289c31.470933 57.992533 88.598756 95.982933 153.975467 102.889245l40.994133 75.525689a15.337244 15.337244 0 0 0 20.798578 6.166755l1.399466-0.750933 57.890134 106.655289 7.827911 54.897777a108.270933 108.270933 0 0 1-3.595378 46.739912 107.770311 107.770311 0 0 1-103.685689 76.708977h-24.928711a15.325867 15.325867 0 1 0 0 30.6176h24.928711c61.6448 0 115.0976-39.549156 133.040356-98.4064a138.467556 138.467556 0 0 0 5.950578-37.6832l59.676444 109.966223c2.139022 3.936711 5.882311 6.735644 10.251378 7.668622l84.241066 18.102044a15.36 15.36 0 0 0 16.349867-7.054222l57.218845-94.560711a15.303111 15.303111 0 0 0-3.948089-20.1728zM584.4992 242.471822a33.792 33.792 0 0 1-13.630578 45.7728 33.905778 33.905778 0 0 1-45.863822-13.607822 33.416533 33.416533 0 0 1-2.685156-25.7024 33.564444 33.564444 0 0 1 16.327112-20.0704 33.871644 33.871644 0 0 1 45.852444 13.607822z m-178.164622-47.104c-20.798578-30.799644-46.318933-82.488889-36.852622-108.896711 2.025244-5.643378 6.599111-13.641956 22.892088-17.942755 36.215467-9.534578 68.960711 30.765511 92.319289 74.513066a197.711644 197.711644 0 0 0-58.925511 52.315022l-19.433244 0.011378z m476.478578 667.022222l-84.923734-156.478577a15.36 15.36 0 0 0-20.798578-6.178134 15.303111 15.303111 0 0 0-6.178133 20.753067l81.794845 150.744178-44.737423-9.614222L654.244978 578.332444l30.572089-16.520533 60.188444 110.933333a15.36 15.36 0 0 0 20.809956 6.166756c7.441067-4.027733 10.217244-13.312 6.178133-20.753067l-60.199822-110.921955 56.945778-30.776889 37.455644 69.006222 4.175644 64.603022c0.284444 4.471467 2.537244 8.578844 6.109867 11.264l48.969956 36.579556 3.948089 60.916622c0.284444 4.471467 2.537244 8.590222 6.109866 11.264l43.508622 32.506311-36.204088 59.790222z" fill=""/>
</g>
</svg>