<!DOCTYPE svg PUBLIC "-//W3C//DTD SVG 1.1//EN" "http://www.w3.org/Graphics/SVG/1.1/DTD/svg11.dtd">

<svg width="64px" height="64px" viewBox="0 0 48 48" fill="none" xmlns="http://www.w3.org/2000/svg"><g id="SVGRepo_bgCarrier" stroke-width="0"></g><g id="SVGRepo_tracerCarrier" stroke-linecap="round" stroke-linejoin="round"></g><g id="SVGRepo_iconCarrier"> <g id="list"> <g id="list_2"> <path id="Combined Shape" fill-rule="evenodd" clip-rule="evenodd" d="M9 14H11C11.5523 14 12 14.4477 12 15C12 15.5523 11.5523 16 11 16H9C8.44772 16 8 15.5523 8 15C8 14.4477 8.44772 14 9 14ZM17 14H39C39.5523 14 40 14.4477 40 15C40 15.5523 39.5523 16 39 16H17C16.4477 16 16 15.5523 16 15C16 14.4477 16.4477 14 17 14ZM11 26H9C8.44772 26 8 26.4477 8 27C8 27.5523 8.44772 28 9 28H11C11.5523 28 12 27.5523 12 27C12 26.4477 11.5523 26 11 26ZM17 26H39C39.5523 26 40 26.4477 40 27C40 27.5523 39.5523 28 39 28H17C16.4477 28 16 27.5523 16 27C16 26.4477 16.4477 26 17 26ZM11 20H9C8.44772 20 8 20.4477 8 21C8 21.5523 8.44772 22 9 22H11C11.5523 22 12 21.5523 12 21C12 20.4477 11.5523 20 11 20ZM17 20H31C31.5523 20 32 20.4477 32 21C32 21.5523 31.5523 22 31 22H17C16.4477 22 16 21.5523 16 21C16 20.4477 16.4477 20 17 20ZM11 32H9C8.44772 32 8 32.4477 8 33C8 33.5523 8.44772 34 9 34H11C11.5523 34 12 33.5523 12 33C12 32.4477 11.5523 32 11 32ZM17 32H31C31.5523 32 32 32.4477 32 33C32 33.5523 31.5523 34 31 34H17C16.4477 34 16 33.5523 16 33C16 32.4477 16.4477 32 17 32Z" fill="#000000"></path> </g> </g> </g></svg>