<!DOCTYPE svg PUBLIC "-//W3C//DTD SVG 1.1//EN" "http://www.w3.org/Graphics/SVG/1.1/DTD/svg11.dtd">

<svg width="64px" height="64px" viewBox="0 0 60 60" xmlns="http://www.w3.org/2000/svg" fill="#000000"><g id="SVGRepo_bgCarrier" stroke-width="0"></g><g id="SVGRepo_tracerCarrier" stroke-linecap="round" stroke-linejoin="round"></g><g id="SVGRepo_iconCarrier"> <defs> <style>.cls-1{fill:none;}.cls-2{fill:#000000;}</style> </defs> <title></title> <g data-name="Layer 2" id="Layer_2"> <g id="Icons"> <g id="Folder"> <rect class="cls-1" height="60" width="60"></rect> <path class="cls-2" d="M46.27,32.49h-.05l1.92-21.88A2.34,2.34,0,0,0,46,8.08L18.55,5.68A2.35,2.35,0,0,0,16,7.8l-.25,2.91H13.55A2.33,2.33,0,0,0,11.22,13V50.43a2.33,2.33,0,0,0,2.33,2.33h4a2.53,2.53,0,0,0,2.33,1.57H46.27a2.52,2.52,0,0,0,2.51-2.51V35A2.52,2.52,0,0,0,46.27,32.49ZM18,8a.33.33,0,0,1,.36-.3l27.46,2.4a.33.33,0,0,1,.3.36L44.21,32.49h-.76V13a2.33,2.33,0,0,0-2.33-2.33H17.78Zm-.68,31.57V50.76H13.55a.33.33,0,0,1-.33-.33V13a.33.33,0,0,1,.33-.33H41.12a.33.33,0,0,1,.33.33V32.49H36.74a4,4,0,0,0-2.5.88l-4.05,3.22a2,2,0,0,1-1.26.44H19.85A2.51,2.51,0,0,0,17.34,39.54ZM46.78,51.82a.51.51,0,0,1-.51.51H19.85a.51.51,0,0,1-.51-.51V39.54a.51.51,0,0,1,.51-.51h9.08a4,4,0,0,0,2.51-.88l4-3.22a2.07,2.07,0,0,1,1.26-.44h9.53a.51.51,0,0,1,.51.51Z"></path> <path class="cls-2" d="M43.64,48.27H39.87a1,1,0,0,0,0,2h3.77a1,1,0,0,0,0-2Z"></path> <path class="cls-2" d="M24.7,18.12H30a1,1,0,0,0,0-2H24.7a1,1,0,0,0,0,2Z"></path> <path class="cls-2" d="M19,23.79H35.64a1,1,0,0,0,0-2H19a1,1,0,0,0,0,2Z"></path> <path class="cls-2" d="M36.64,27.83a1,1,0,0,0-1-1H19a1,1,0,0,0,0,2H35.64A1,1,0,0,0,36.64,27.83Z"></path> </g> </g> </g> </g></svg>